<mxfile host="app.diagrams.net" modified="2024-04-06T16:10:34.987Z" agent="Mozilla/5.0 (Windows NT 10.0; Win64; x64) AppleWebKit/537.36 (KHTML, like Gecko) Chrome/123.0.0.0 Safari/537.36 Edg/123.0.0.0" etag="JViP6RPxha_GvoSAwG7d" version="24.2.1" type="device">
  <diagram name="Page-1" id="OgqWzHOYpkqpAx2CG4Mx">
    <mxGraphModel dx="1741" dy="469" grid="1" gridSize="10" guides="1" tooltips="1" connect="1" arrows="1" fold="1" page="1" pageScale="1" pageWidth="850" pageHeight="1100" math="0" shadow="0">
      <root>
        <mxCell id="0" />
        <mxCell id="1" parent="0" />
        <mxCell id="xIa3Vx79y7yh4UbGRc0e-11" style="edgeStyle=orthogonalEdgeStyle;rounded=0;orthogonalLoop=1;jettySize=auto;html=1;exitX=1;exitY=0.5;exitDx=0;exitDy=0;entryX=0;entryY=0.5;entryDx=0;entryDy=0;endArrow=none;endFill=0;" parent="1" source="xIa3Vx79y7yh4UbGRc0e-1" target="xIa3Vx79y7yh4UbGRc0e-10" edge="1">
          <mxGeometry relative="1" as="geometry" />
        </mxCell>
        <mxCell id="xIa3Vx79y7yh4UbGRc0e-1" value="Bus trip" style="rounded=0;whiteSpace=wrap;html=1;" parent="1" vertex="1">
          <mxGeometry x="390" y="200" width="100" height="40" as="geometry" />
        </mxCell>
        <mxCell id="xIa3Vx79y7yh4UbGRc0e-22" style="edgeStyle=orthogonalEdgeStyle;rounded=0;orthogonalLoop=1;jettySize=auto;html=1;exitX=1;exitY=0.5;exitDx=0;exitDy=0;entryX=0;entryY=0.5;entryDx=0;entryDy=0;endArrow=none;endFill=0;" parent="1" source="xIa3Vx79y7yh4UbGRc0e-4" target="xIa3Vx79y7yh4UbGRc0e-19" edge="1">
          <mxGeometry relative="1" as="geometry" />
        </mxCell>
        <mxCell id="xIa3Vx79y7yh4UbGRc0e-41" style="rounded=0;orthogonalLoop=1;jettySize=auto;html=1;exitX=0.5;exitY=0;exitDx=0;exitDy=0;entryX=1;entryY=0.5;entryDx=0;entryDy=0;endArrow=none;endFill=0;" parent="1" source="xIa3Vx79y7yh4UbGRc0e-4" target="xIa3Vx79y7yh4UbGRc0e-39" edge="1">
          <mxGeometry relative="1" as="geometry" />
        </mxCell>
        <mxCell id="xIa3Vx79y7yh4UbGRc0e-43" style="rounded=0;orthogonalLoop=1;jettySize=auto;html=1;exitX=0.5;exitY=0;exitDx=0;exitDy=0;entryX=0;entryY=0.5;entryDx=0;entryDy=0;endArrow=none;endFill=0;" parent="1" source="xIa3Vx79y7yh4UbGRc0e-4" target="xIa3Vx79y7yh4UbGRc0e-40" edge="1">
          <mxGeometry relative="1" as="geometry" />
        </mxCell>
        <mxCell id="xIa3Vx79y7yh4UbGRc0e-4" value="Route" style="rounded=0;whiteSpace=wrap;html=1;" parent="1" vertex="1">
          <mxGeometry x="-30" y="150" width="100" height="40" as="geometry" />
        </mxCell>
        <mxCell id="xIa3Vx79y7yh4UbGRc0e-52" style="rounded=0;orthogonalLoop=1;jettySize=auto;html=1;exitX=0.5;exitY=0;exitDx=0;exitDy=0;entryX=1;entryY=1;entryDx=0;entryDy=0;endArrow=none;endFill=0;" parent="1" source="xIa3Vx79y7yh4UbGRc0e-5" target="xIa3Vx79y7yh4UbGRc0e-50" edge="1">
          <mxGeometry relative="1" as="geometry" />
        </mxCell>
        <mxCell id="xIa3Vx79y7yh4UbGRc0e-53" style="rounded=0;orthogonalLoop=1;jettySize=auto;html=1;exitX=0.5;exitY=0;exitDx=0;exitDy=0;entryX=0;entryY=1;entryDx=0;entryDy=0;endArrow=none;endFill=0;" parent="1" source="xIa3Vx79y7yh4UbGRc0e-5" target="xIa3Vx79y7yh4UbGRc0e-51" edge="1">
          <mxGeometry relative="1" as="geometry" />
        </mxCell>
        <mxCell id="xIa3Vx79y7yh4UbGRc0e-5" value="Bus stop" style="rounded=0;whiteSpace=wrap;html=1;" parent="1" vertex="1">
          <mxGeometry x="545" y="460" width="100" height="40" as="geometry" />
        </mxCell>
        <mxCell id="xIa3Vx79y7yh4UbGRc0e-81" style="edgeStyle=orthogonalEdgeStyle;rounded=0;orthogonalLoop=1;jettySize=auto;html=1;exitX=1;exitY=0.5;exitDx=0;exitDy=0;entryX=0;entryY=0.5;entryDx=0;entryDy=0;endArrow=none;endFill=0;" parent="1" source="xIa3Vx79y7yh4UbGRc0e-10" target="xIa3Vx79y7yh4UbGRc0e-5" edge="1">
          <mxGeometry relative="1" as="geometry" />
        </mxCell>
        <mxCell id="xIa3Vx79y7yh4UbGRc0e-10" value="Stops&amp;nbsp;&lt;div&gt;at&lt;/div&gt;" style="rhombus;whiteSpace=wrap;html=1;" parent="1" vertex="1">
          <mxGeometry x="390" y="80" width="60" height="60" as="geometry" />
        </mxCell>
        <mxCell id="xIa3Vx79y7yh4UbGRc0e-23" style="rounded=0;orthogonalLoop=1;jettySize=auto;html=1;exitX=1;exitY=0.5;exitDx=0;exitDy=0;entryX=0;entryY=0.5;entryDx=0;entryDy=0;endArrow=none;endFill=0;" parent="1" source="xIa3Vx79y7yh4UbGRc0e-19" target="xIa3Vx79y7yh4UbGRc0e-1" edge="1">
          <mxGeometry relative="1" as="geometry" />
        </mxCell>
        <mxCell id="xIa3Vx79y7yh4UbGRc0e-19" value="&lt;font style=&quot;font-size: 10px;&quot;&gt;Operates&lt;/font&gt;&lt;div style=&quot;font-size: 10px;&quot;&gt;&lt;font style=&quot;font-size: 10px;&quot;&gt;on&lt;/font&gt;&lt;/div&gt;" style="rhombus;whiteSpace=wrap;html=1;" parent="1" vertex="1">
          <mxGeometry x="100" y="140" width="60" height="60" as="geometry" />
        </mxCell>
        <mxCell id="xIa3Vx79y7yh4UbGRc0e-39" value="end&lt;div&gt;point&lt;/div&gt;" style="ellipse;whiteSpace=wrap;html=1;" parent="1" vertex="1">
          <mxGeometry x="-70" y="80" width="50" height="50" as="geometry" />
        </mxCell>
        <mxCell id="xIa3Vx79y7yh4UbGRc0e-40" value="inter-&lt;div&gt;sections&lt;/div&gt;" style="ellipse;whiteSpace=wrap;html=1;" parent="1" vertex="1">
          <mxGeometry x="60" y="80" width="50" height="50" as="geometry" />
        </mxCell>
        <mxCell id="xIa3Vx79y7yh4UbGRc0e-45" value="route&lt;div&gt;ID&lt;/div&gt;" style="ellipse;whiteSpace=wrap;html=1;" parent="1" vertex="1">
          <mxGeometry x="281" y="9" width="50" height="50" as="geometry" />
        </mxCell>
        <mxCell id="xIa3Vx79y7yh4UbGRc0e-48" style="rounded=0;orthogonalLoop=1;jettySize=auto;html=1;exitX=0.5;exitY=0;exitDx=0;exitDy=0;entryX=0.453;entryY=0.993;entryDx=0;entryDy=0;entryPerimeter=0;endArrow=none;endFill=0;" parent="1" source="xIa3Vx79y7yh4UbGRc0e-1" target="xIa3Vx79y7yh4UbGRc0e-45" edge="1">
          <mxGeometry relative="1" as="geometry" />
        </mxCell>
        <mxCell id="xIa3Vx79y7yh4UbGRc0e-50" value="location" style="ellipse;whiteSpace=wrap;html=1;" parent="1" vertex="1">
          <mxGeometry x="480" y="9" width="50" height="50" as="geometry" />
        </mxCell>
        <mxCell id="xIa3Vx79y7yh4UbGRc0e-51" value="served&lt;div&gt;routes ID&lt;/div&gt;" style="ellipse;whiteSpace=wrap;html=1;" parent="1" vertex="1">
          <mxGeometry x="570" y="9" width="50" height="50" as="geometry" />
        </mxCell>
        <mxCell id="IcOZGdYZxW1Ww55h6HlO-5" style="edgeStyle=orthogonalEdgeStyle;rounded=0;orthogonalLoop=1;jettySize=auto;html=1;exitX=1;exitY=0.5;exitDx=0;exitDy=0;entryX=0;entryY=0.5;entryDx=0;entryDy=0;endArrow=none;endFill=0;" parent="1" source="IcOZGdYZxW1Ww55h6HlO-1" target="IcOZGdYZxW1Ww55h6HlO-4" edge="1">
          <mxGeometry relative="1" as="geometry" />
        </mxCell>
        <mxCell id="IcOZGdYZxW1Ww55h6HlO-14" style="rounded=0;orthogonalLoop=1;jettySize=auto;html=1;exitX=0.5;exitY=0;exitDx=0;exitDy=0;entryX=0.5;entryY=1;entryDx=0;entryDy=0;endArrow=none;endFill=0;" parent="1" source="IcOZGdYZxW1Ww55h6HlO-1" target="IcOZGdYZxW1Ww55h6HlO-7" edge="1">
          <mxGeometry relative="1" as="geometry" />
        </mxCell>
        <mxCell id="IcOZGdYZxW1Ww55h6HlO-15" style="rounded=0;orthogonalLoop=1;jettySize=auto;html=1;exitX=0.25;exitY=0;exitDx=0;exitDy=0;entryX=0.5;entryY=1;entryDx=0;entryDy=0;endArrow=none;endFill=0;" parent="1" source="IcOZGdYZxW1Ww55h6HlO-1" target="IcOZGdYZxW1Ww55h6HlO-8" edge="1">
          <mxGeometry relative="1" as="geometry" />
        </mxCell>
        <mxCell id="IcOZGdYZxW1Ww55h6HlO-16" style="rounded=0;orthogonalLoop=1;jettySize=auto;html=1;exitX=0;exitY=0;exitDx=0;exitDy=0;entryX=1;entryY=1;entryDx=0;entryDy=0;endArrow=none;endFill=0;" parent="1" source="IcOZGdYZxW1Ww55h6HlO-1" target="IcOZGdYZxW1Ww55h6HlO-9" edge="1">
          <mxGeometry relative="1" as="geometry" />
        </mxCell>
        <mxCell id="IcOZGdYZxW1Ww55h6HlO-17" style="edgeStyle=orthogonalEdgeStyle;rounded=0;orthogonalLoop=1;jettySize=auto;html=1;exitX=0;exitY=0.5;exitDx=0;exitDy=0;entryX=1;entryY=0.5;entryDx=0;entryDy=0;endArrow=none;endFill=0;" parent="1" source="IcOZGdYZxW1Ww55h6HlO-1" target="IcOZGdYZxW1Ww55h6HlO-10" edge="1">
          <mxGeometry relative="1" as="geometry" />
        </mxCell>
        <mxCell id="IcOZGdYZxW1Ww55h6HlO-18" style="rounded=0;orthogonalLoop=1;jettySize=auto;html=1;exitX=0;exitY=1;exitDx=0;exitDy=0;entryX=1;entryY=0;entryDx=0;entryDy=0;endArrow=none;endFill=0;" parent="1" source="IcOZGdYZxW1Ww55h6HlO-1" target="IcOZGdYZxW1Ww55h6HlO-11" edge="1">
          <mxGeometry relative="1" as="geometry" />
        </mxCell>
        <mxCell id="IcOZGdYZxW1Ww55h6HlO-19" style="rounded=0;orthogonalLoop=1;jettySize=auto;html=1;exitX=0.25;exitY=1;exitDx=0;exitDy=0;entryX=0.5;entryY=0;entryDx=0;entryDy=0;endArrow=none;endFill=0;" parent="1" source="IcOZGdYZxW1Ww55h6HlO-1" target="IcOZGdYZxW1Ww55h6HlO-12" edge="1">
          <mxGeometry relative="1" as="geometry" />
        </mxCell>
        <mxCell id="IcOZGdYZxW1Ww55h6HlO-20" style="rounded=0;orthogonalLoop=1;jettySize=auto;html=1;exitX=0.5;exitY=1;exitDx=0;exitDy=0;endArrow=none;endFill=0;" parent="1" source="IcOZGdYZxW1Ww55h6HlO-1" target="IcOZGdYZxW1Ww55h6HlO-13" edge="1">
          <mxGeometry relative="1" as="geometry" />
        </mxCell>
        <mxCell id="IcOZGdYZxW1Ww55h6HlO-1" value="Bus trip" style="rounded=0;whiteSpace=wrap;html=1;" parent="1" vertex="1">
          <mxGeometry x="240" y="300" width="100" height="40" as="geometry" />
        </mxCell>
        <mxCell id="IcOZGdYZxW1Ww55h6HlO-27" style="rounded=0;orthogonalLoop=1;jettySize=auto;html=1;exitX=0.5;exitY=0;exitDx=0;exitDy=0;entryX=0.5;entryY=1;entryDx=0;entryDy=0;endArrow=none;endFill=0;" parent="1" source="IcOZGdYZxW1Ww55h6HlO-2" target="IcOZGdYZxW1Ww55h6HlO-21" edge="1">
          <mxGeometry relative="1" as="geometry" />
        </mxCell>
        <mxCell id="IcOZGdYZxW1Ww55h6HlO-28" style="rounded=0;orthogonalLoop=1;jettySize=auto;html=1;exitX=0.75;exitY=0;exitDx=0;exitDy=0;entryX=0;entryY=1;entryDx=0;entryDy=0;endArrow=none;endFill=0;" parent="1" source="IcOZGdYZxW1Ww55h6HlO-2" target="IcOZGdYZxW1Ww55h6HlO-22" edge="1">
          <mxGeometry relative="1" as="geometry" />
        </mxCell>
        <mxCell id="IcOZGdYZxW1Ww55h6HlO-30" style="rounded=0;orthogonalLoop=1;jettySize=auto;html=1;exitX=1;exitY=0.25;exitDx=0;exitDy=0;endArrow=none;endFill=0;" parent="1" source="IcOZGdYZxW1Ww55h6HlO-2" target="IcOZGdYZxW1Ww55h6HlO-24" edge="1">
          <mxGeometry relative="1" as="geometry" />
        </mxCell>
        <mxCell id="IcOZGdYZxW1Ww55h6HlO-31" style="rounded=0;orthogonalLoop=1;jettySize=auto;html=1;exitX=1;exitY=0.75;exitDx=0;exitDy=0;entryX=0.5;entryY=0;entryDx=0;entryDy=0;endArrow=none;endFill=0;" parent="1" source="IcOZGdYZxW1Ww55h6HlO-2" target="IcOZGdYZxW1Ww55h6HlO-25" edge="1">
          <mxGeometry relative="1" as="geometry" />
        </mxCell>
        <mxCell id="IcOZGdYZxW1Ww55h6HlO-32" style="rounded=0;orthogonalLoop=1;jettySize=auto;html=1;exitX=0.5;exitY=1;exitDx=0;exitDy=0;entryX=0.5;entryY=0;entryDx=0;entryDy=0;endArrow=none;endFill=0;" parent="1" source="IcOZGdYZxW1Ww55h6HlO-2" target="IcOZGdYZxW1Ww55h6HlO-26" edge="1">
          <mxGeometry relative="1" as="geometry" />
        </mxCell>
        <mxCell id="9XaV_-jRwgUX_-iaE8U2-2" style="rounded=0;orthogonalLoop=1;jettySize=auto;html=1;exitX=0;exitY=0.5;exitDx=0;exitDy=0;entryX=1;entryY=0;entryDx=0;entryDy=0;endArrow=none;endFill=0;" parent="1" source="IcOZGdYZxW1Ww55h6HlO-2" edge="1">
          <mxGeometry relative="1" as="geometry" />
        </mxCell>
        <mxCell id="IcOZGdYZxW1Ww55h6HlO-2" value="Bus stop" style="rounded=0;whiteSpace=wrap;html=1;" parent="1" vertex="1">
          <mxGeometry x="690" y="550" width="100" height="40" as="geometry" />
        </mxCell>
        <mxCell id="IcOZGdYZxW1Ww55h6HlO-6" style="edgeStyle=orthogonalEdgeStyle;rounded=0;orthogonalLoop=1;jettySize=auto;html=1;exitX=1;exitY=0.5;exitDx=0;exitDy=0;entryX=0;entryY=0.5;entryDx=0;entryDy=0;endArrow=none;endFill=0;" parent="1" source="IcOZGdYZxW1Ww55h6HlO-4" target="IcOZGdYZxW1Ww55h6HlO-2" edge="1">
          <mxGeometry relative="1" as="geometry" />
        </mxCell>
        <mxCell id="IcOZGdYZxW1Ww55h6HlO-4" value="Serves" style="rhombus;whiteSpace=wrap;html=1;" parent="1" vertex="1">
          <mxGeometry x="420" y="110" width="60" height="60" as="geometry" />
        </mxCell>
        <mxCell id="IcOZGdYZxW1Ww55h6HlO-7" value="id" style="ellipse;whiteSpace=wrap;html=1;" parent="1" vertex="1">
          <mxGeometry x="280" y="40" width="80" height="40" as="geometry" />
        </mxCell>
        <mxCell id="IcOZGdYZxW1Ww55h6HlO-8" value="start_point" style="ellipse;whiteSpace=wrap;html=1;" parent="1" vertex="1">
          <mxGeometry x="190" y="40" width="80" height="40" as="geometry" />
        </mxCell>
        <mxCell id="IcOZGdYZxW1Ww55h6HlO-9" value="end_point" style="ellipse;whiteSpace=wrap;html=1;" parent="1" vertex="1">
          <mxGeometry x="120" y="70" width="80" height="40" as="geometry" />
        </mxCell>
        <mxCell id="IcOZGdYZxW1Ww55h6HlO-10" value="accessibility" style="ellipse;whiteSpace=wrap;html=1;" parent="1" vertex="1">
          <mxGeometry x="110" y="120" width="80" height="40" as="geometry" />
        </mxCell>
        <mxCell id="IcOZGdYZxW1Ww55h6HlO-11" value="distance" style="ellipse;whiteSpace=wrap;html=1;" parent="1" vertex="1">
          <mxGeometry x="120" y="170" width="80" height="40" as="geometry" />
        </mxCell>
        <mxCell id="IcOZGdYZxW1Ww55h6HlO-12" value="operation&lt;div&gt;hours&lt;/div&gt;" style="ellipse;whiteSpace=wrap;html=1;" parent="1" vertex="1">
          <mxGeometry x="190" y="200" width="80" height="40" as="geometry" />
        </mxCell>
        <mxCell id="IcOZGdYZxW1Ww55h6HlO-13" value="direction" style="ellipse;whiteSpace=wrap;html=1;" parent="1" vertex="1">
          <mxGeometry x="280" y="200" width="80" height="40" as="geometry" />
        </mxCell>
        <mxCell id="IcOZGdYZxW1Ww55h6HlO-21" value="id" style="ellipse;whiteSpace=wrap;html=1;" parent="1" vertex="1">
          <mxGeometry x="560" y="40" width="80" height="40" as="geometry" />
        </mxCell>
        <mxCell id="IcOZGdYZxW1Ww55h6HlO-22" value="name" style="ellipse;whiteSpace=wrap;html=1;" parent="1" vertex="1">
          <mxGeometry x="650" y="50" width="80" height="40" as="geometry" />
        </mxCell>
        <mxCell id="IcOZGdYZxW1Ww55h6HlO-24" value="address" style="ellipse;whiteSpace=wrap;html=1;" parent="1" vertex="1">
          <mxGeometry x="680" y="100" width="80" height="40" as="geometry" />
        </mxCell>
        <mxCell id="IcOZGdYZxW1Ww55h6HlO-25" value="nearby&lt;div&gt;buildings&lt;/div&gt;" style="ellipse;whiteSpace=wrap;html=1;" parent="1" vertex="1">
          <mxGeometry x="670" y="170" width="80" height="40" as="geometry" />
        </mxCell>
        <mxCell id="IcOZGdYZxW1Ww55h6HlO-26" value="served&lt;div&gt;routes&lt;/div&gt;" style="ellipse;whiteSpace=wrap;html=1;" parent="1" vertex="1">
          <mxGeometry x="580" y="180" width="80" height="40" as="geometry" />
        </mxCell>
        <mxCell id="9XaV_-jRwgUX_-iaE8U2-9" style="rounded=0;orthogonalLoop=1;jettySize=auto;html=1;exitX=1;exitY=0.5;exitDx=0;exitDy=0;entryX=0;entryY=0;entryDx=0;entryDy=0;endArrow=none;endFill=0;" parent="1" edge="1">
          <mxGeometry relative="1" as="geometry" />
        </mxCell>
        <mxCell id="QBGAywy0s2tyQeMW8puN-1" value="position" style="html=1;dashed=0;whiteSpace=wrap;" parent="1" vertex="1">
          <mxGeometry x="301" y="360" width="100" height="50" as="geometry" />
        </mxCell>
        <mxCell id="QBGAywy0s2tyQeMW8puN-2" value="located" style="shape=rhombus;html=1;dashed=0;whiteSpace=wrap;perimeter=rhombusPerimeter;" parent="1" vertex="1">
          <mxGeometry x="460" y="210" width="60" height="50" as="geometry" />
        </mxCell>
        <mxCell id="QBGAywy0s2tyQeMW8puN-3" value="" style="endArrow=none;html=1;rounded=0;entryX=0.5;entryY=1;entryDx=0;entryDy=0;exitX=0.5;exitY=0;exitDx=0;exitDy=0;" parent="1" source="QBGAywy0s2tyQeMW8puN-2" target="xIa3Vx79y7yh4UbGRc0e-5" edge="1">
          <mxGeometry relative="1" as="geometry">
            <mxPoint x="480" y="300" as="sourcePoint" />
            <mxPoint x="640" y="300" as="targetPoint" />
          </mxGeometry>
        </mxCell>
        <mxCell id="QBGAywy0s2tyQeMW8puN-4" value="" style="endArrow=none;html=1;rounded=0;exitX=0.5;exitY=0;exitDx=0;exitDy=0;entryX=0.5;entryY=1;entryDx=0;entryDy=0;" parent="1" source="QBGAywy0s2tyQeMW8puN-1" target="QBGAywy0s2tyQeMW8puN-2" edge="1">
          <mxGeometry relative="1" as="geometry">
            <mxPoint x="480" y="300" as="sourcePoint" />
            <mxPoint x="640" y="300" as="targetPoint" />
          </mxGeometry>
        </mxCell>
        <mxCell id="QBGAywy0s2tyQeMW8puN-8" value="longitude" style="ellipse;whiteSpace=wrap;html=1;dashed=0;" parent="1" vertex="1">
          <mxGeometry x="480" y="410" width="80" height="80" as="geometry" />
        </mxCell>
        <mxCell id="QBGAywy0s2tyQeMW8puN-10" value="lattitude" style="ellipse;whiteSpace=wrap;html=1;dashed=0;" parent="1" vertex="1">
          <mxGeometry x="380" y="435" width="80" height="80" as="geometry" />
        </mxCell>
        <mxCell id="QBGAywy0s2tyQeMW8puN-12" value="" style="endArrow=none;html=1;rounded=0;exitX=0.5;exitY=1;exitDx=0;exitDy=0;entryX=0.5;entryY=0;entryDx=0;entryDy=0;" parent="1" source="xIa3Vx79y7yh4UbGRc0e-1" target="QBGAywy0s2tyQeMW8puN-15" edge="1">
          <mxGeometry relative="1" as="geometry">
            <mxPoint x="290" y="300" as="sourcePoint" />
            <mxPoint x="305" y="190" as="targetPoint" />
          </mxGeometry>
        </mxCell>
        <mxCell id="QBGAywy0s2tyQeMW8puN-13" value="" style="endArrow=none;html=1;rounded=0;entryX=0;entryY=0.5;entryDx=0;entryDy=0;" parent="1" source="QBGAywy0s2tyQeMW8puN-1" target="QBGAywy0s2tyQeMW8puN-8" edge="1">
          <mxGeometry relative="1" as="geometry">
            <mxPoint x="480" y="300" as="sourcePoint" />
            <mxPoint x="640" y="300" as="targetPoint" />
          </mxGeometry>
        </mxCell>
        <mxCell id="QBGAywy0s2tyQeMW8puN-14" value="" style="endArrow=none;html=1;rounded=0;entryX=0.5;entryY=0;entryDx=0;entryDy=0;exitX=0.5;exitY=1;exitDx=0;exitDy=0;" parent="1" source="QBGAywy0s2tyQeMW8puN-1" target="QBGAywy0s2tyQeMW8puN-10" edge="1">
          <mxGeometry relative="1" as="geometry">
            <mxPoint x="480" y="355" as="sourcePoint" />
            <mxPoint x="545" y="355" as="targetPoint" />
          </mxGeometry>
        </mxCell>
        <mxCell id="QBGAywy0s2tyQeMW8puN-15" value="current location" style="shape=rhombus;html=1;dashed=0;whiteSpace=wrap;perimeter=rhombusPerimeter;" parent="1" vertex="1">
          <mxGeometry x="310" y="690" width="60" height="50" as="geometry" />
        </mxCell>
        <mxCell id="QBGAywy0s2tyQeMW8puN-16" value="" style="endArrow=none;html=1;rounded=0;exitX=0.5;exitY=1;exitDx=0;exitDy=0;entryX=0;entryY=0.5;entryDx=0;entryDy=0;" parent="1" source="QBGAywy0s2tyQeMW8puN-15" target="QBGAywy0s2tyQeMW8puN-1" edge="1">
          <mxGeometry relative="1" as="geometry">
            <mxPoint x="480" y="300" as="sourcePoint" />
            <mxPoint x="640" y="300" as="targetPoint" />
          </mxGeometry>
        </mxCell>
        <mxCell id="QBGAywy0s2tyQeMW8puN-18" value="schedule" style="ellipse;whiteSpace=wrap;html=1;" parent="1" vertex="1">
          <mxGeometry x="200" y="9" width="50" height="50" as="geometry" />
        </mxCell>
        <mxCell id="QBGAywy0s2tyQeMW8puN-19" value="" style="endArrow=none;html=1;rounded=0;entryX=0.25;entryY=0;entryDx=0;entryDy=0;exitX=0.5;exitY=1;exitDx=0;exitDy=0;" parent="1" source="QBGAywy0s2tyQeMW8puN-18" target="xIa3Vx79y7yh4UbGRc0e-1" edge="1">
          <mxGeometry relative="1" as="geometry">
            <mxPoint x="300" y="290" as="sourcePoint" />
            <mxPoint x="460" y="290" as="targetPoint" />
          </mxGeometry>
        </mxCell>
        <mxCell id="QBGAywy0s2tyQeMW8puN-21" value="id" style="ellipse;whiteSpace=wrap;html=1;" parent="1" vertex="1">
          <mxGeometry x="351" y="9" width="50" height="50" as="geometry" />
        </mxCell>
        <mxCell id="QBGAywy0s2tyQeMW8puN-22" value="" style="endArrow=none;html=1;rounded=0;" parent="1" target="QBGAywy0s2tyQeMW8puN-21" edge="1">
          <mxGeometry relative="1" as="geometry">
            <mxPoint x="340" y="90" as="sourcePoint" />
            <mxPoint x="460" y="290" as="targetPoint" />
          </mxGeometry>
        </mxCell>
        <mxCell id="QBGAywy0s2tyQeMW8puN-24" value="id" style="ellipse;whiteSpace=wrap;html=1;rounded=0;" parent="1" vertex="1">
          <mxGeometry x="630" y="85" width="50" height="50" as="geometry" />
        </mxCell>
        <mxCell id="QBGAywy0s2tyQeMW8puN-26" style="rounded=0;orthogonalLoop=1;jettySize=auto;html=1;exitX=1;exitY=0.5;exitDx=0;exitDy=0;entryX=0;entryY=0.5;entryDx=0;entryDy=0;endArrow=none;endFill=0;" parent="1" source="xIa3Vx79y7yh4UbGRc0e-5" target="QBGAywy0s2tyQeMW8puN-24" edge="1">
          <mxGeometry relative="1" as="geometry">
            <mxPoint x="540" y="100" as="sourcePoint" />
            <mxPoint x="567" y="62" as="targetPoint" />
          </mxGeometry>
        </mxCell>
        <mxCell id="QBGAywy0s2tyQeMW8puN-27" value="start&lt;div&gt;end&lt;/div&gt;" style="ellipse;whiteSpace=wrap;html=1;rounded=0;" parent="1" vertex="1">
          <mxGeometry x="-15" y="230" width="70" height="60" as="geometry" />
        </mxCell>
        <mxCell id="QBGAywy0s2tyQeMW8puN-29" value="" style="endArrow=none;html=1;rounded=0;exitX=0.5;exitY=1;exitDx=0;exitDy=0;entryX=0.5;entryY=0;entryDx=0;entryDy=0;" parent="1" source="xIa3Vx79y7yh4UbGRc0e-4" target="QBGAywy0s2tyQeMW8puN-27" edge="1">
          <mxGeometry relative="1" as="geometry">
            <mxPoint x="300" y="290" as="sourcePoint" />
            <mxPoint x="460" y="290" as="targetPoint" />
          </mxGeometry>
        </mxCell>
        <mxCell id="QBGAywy0s2tyQeMW8puN-30" value="ID" style="ellipse;whiteSpace=wrap;html=1;rounded=0;" parent="1" vertex="1">
          <mxGeometry x="-140" y="145" width="50" height="50" as="geometry" />
        </mxCell>
        <mxCell id="QBGAywy0s2tyQeMW8puN-32" value="" style="endArrow=none;html=1;rounded=0;exitX=0;exitY=0.5;exitDx=0;exitDy=0;entryX=1;entryY=0.5;entryDx=0;entryDy=0;" parent="1" source="xIa3Vx79y7yh4UbGRc0e-4" target="QBGAywy0s2tyQeMW8puN-30" edge="1">
          <mxGeometry relative="1" as="geometry">
            <mxPoint x="30" y="200" as="sourcePoint" />
            <mxPoint x="30" y="240" as="targetPoint" />
          </mxGeometry>
        </mxCell>
        <mxCell id="QBGAywy0s2tyQeMW8puN-33" value="position ID" style="ellipse;whiteSpace=wrap;html=1;dashed=0;" parent="1" vertex="1">
          <mxGeometry x="261" y="400" width="70" height="70" as="geometry" />
        </mxCell>
        <mxCell id="QBGAywy0s2tyQeMW8puN-35" value="" style="endArrow=none;html=1;rounded=0;entryX=0.952;entryY=0.297;entryDx=0;entryDy=0;exitX=0;exitY=0.75;exitDx=0;exitDy=0;entryPerimeter=0;" parent="1" source="QBGAywy0s2tyQeMW8puN-1" target="QBGAywy0s2tyQeMW8puN-33" edge="1">
          <mxGeometry relative="1" as="geometry">
            <mxPoint x="430" y="380" as="sourcePoint" />
            <mxPoint x="430" y="445" as="targetPoint" />
          </mxGeometry>
        </mxCell>
        <mxCell id="QBGAywy0s2tyQeMW8puN-36" value="position ID" style="ellipse;whiteSpace=wrap;html=1;dashed=0;" parent="1" vertex="1">
          <mxGeometry x="210" y="145" width="60" height="60" as="geometry" />
        </mxCell>
        <mxCell id="QBGAywy0s2tyQeMW8puN-37" value="" style="endArrow=none;html=1;rounded=0;exitX=1;exitY=0;exitDx=0;exitDy=0;" parent="1" source="QBGAywy0s2tyQeMW8puN-36" target="xIa3Vx79y7yh4UbGRc0e-1" edge="1">
          <mxGeometry relative="1" as="geometry">
            <mxPoint x="260" y="290" as="sourcePoint" />
            <mxPoint x="420" y="290" as="targetPoint" />
          </mxGeometry>
        </mxCell>
        <mxCell id="IktET_3hy7MtRaVNyWZP-7" style="edgeStyle=orthogonalEdgeStyle;rounded=0;orthogonalLoop=1;jettySize=auto;html=1;exitX=1;exitY=0.5;exitDx=0;exitDy=0;entryX=0;entryY=0.5;entryDx=0;entryDy=0;endArrow=none;endFill=0;" edge="1" parent="1" source="IktET_3hy7MtRaVNyWZP-1" target="IktET_3hy7MtRaVNyWZP-6">
          <mxGeometry relative="1" as="geometry" />
        </mxCell>
        <mxCell id="IktET_3hy7MtRaVNyWZP-17" style="rounded=0;orthogonalLoop=1;jettySize=auto;html=1;exitX=0.5;exitY=0;exitDx=0;exitDy=0;entryX=0.5;entryY=1;entryDx=0;entryDy=0;endArrow=none;endFill=0;" edge="1" parent="1" source="IktET_3hy7MtRaVNyWZP-1" target="IktET_3hy7MtRaVNyWZP-15">
          <mxGeometry relative="1" as="geometry" />
        </mxCell>
        <mxCell id="IktET_3hy7MtRaVNyWZP-1" value="Bus trip" style="rounded=0;whiteSpace=wrap;html=1;" vertex="1" parent="1">
          <mxGeometry x="-660" y="640" width="100" height="40" as="geometry" />
        </mxCell>
        <mxCell id="IktET_3hy7MtRaVNyWZP-21" style="edgeStyle=orthogonalEdgeStyle;rounded=0;orthogonalLoop=1;jettySize=auto;html=1;exitX=0.5;exitY=1;exitDx=0;exitDy=0;entryX=0.5;entryY=0;entryDx=0;entryDy=0;endArrow=none;endFill=0;" edge="1" parent="1" source="IktET_3hy7MtRaVNyWZP-2" target="IktET_3hy7MtRaVNyWZP-9">
          <mxGeometry relative="1" as="geometry" />
        </mxCell>
        <mxCell id="IktET_3hy7MtRaVNyWZP-2" value="Bus stop" style="rounded=0;whiteSpace=wrap;html=1;" vertex="1" parent="1">
          <mxGeometry x="-340" y="640" width="100" height="40" as="geometry" />
        </mxCell>
        <mxCell id="IktET_3hy7MtRaVNyWZP-3" value="Position" style="html=1;dashed=0;whiteSpace=wrap;" vertex="1" parent="1">
          <mxGeometry x="-340" y="840" width="100" height="40" as="geometry" />
        </mxCell>
        <mxCell id="IktET_3hy7MtRaVNyWZP-4" value="Transportation&lt;div&gt;company&lt;/div&gt;" style="html=1;dashed=0;whiteSpace=wrap;" vertex="1" parent="1">
          <mxGeometry x="-660" y="840" width="100" height="40" as="geometry" />
        </mxCell>
        <mxCell id="IktET_3hy7MtRaVNyWZP-20" style="edgeStyle=orthogonalEdgeStyle;rounded=0;orthogonalLoop=1;jettySize=auto;html=1;exitX=1;exitY=0.5;exitDx=0;exitDy=0;entryX=0;entryY=0.5;entryDx=0;entryDy=0;endArrow=none;endFill=0;" edge="1" parent="1" source="IktET_3hy7MtRaVNyWZP-5" target="IktET_3hy7MtRaVNyWZP-18">
          <mxGeometry relative="1" as="geometry" />
        </mxCell>
        <mxCell id="IktET_3hy7MtRaVNyWZP-5" value="Passenger" style="html=1;dashed=0;whiteSpace=wrap;" vertex="1" parent="1">
          <mxGeometry x="-500" y="555" width="100" height="40" as="geometry" />
        </mxCell>
        <mxCell id="IktET_3hy7MtRaVNyWZP-8" style="edgeStyle=orthogonalEdgeStyle;rounded=0;orthogonalLoop=1;jettySize=auto;html=1;exitX=1;exitY=0.5;exitDx=0;exitDy=0;endArrow=none;endFill=0;" edge="1" parent="1" source="IktET_3hy7MtRaVNyWZP-6" target="IktET_3hy7MtRaVNyWZP-2">
          <mxGeometry relative="1" as="geometry" />
        </mxCell>
        <mxCell id="IktET_3hy7MtRaVNyWZP-6" value="serves" style="shape=rhombus;html=1;dashed=0;whiteSpace=wrap;perimeter=rhombusPerimeter;" vertex="1" parent="1">
          <mxGeometry x="-480" y="635" width="60" height="50" as="geometry" />
        </mxCell>
        <mxCell id="IktET_3hy7MtRaVNyWZP-11" style="edgeStyle=orthogonalEdgeStyle;rounded=0;orthogonalLoop=1;jettySize=auto;html=1;exitX=0.5;exitY=1;exitDx=0;exitDy=0;entryX=0.5;entryY=0;entryDx=0;entryDy=0;endArrow=none;endFill=0;" edge="1" parent="1" source="IktET_3hy7MtRaVNyWZP-9" target="IktET_3hy7MtRaVNyWZP-3">
          <mxGeometry relative="1" as="geometry" />
        </mxCell>
        <mxCell id="IktET_3hy7MtRaVNyWZP-9" value="&lt;font style=&quot;font-size: 10px;&quot;&gt;locates&lt;/font&gt;&lt;div style=&quot;font-size: 10px;&quot;&gt;&lt;font style=&quot;font-size: 10px;&quot;&gt;at&lt;/font&gt;&lt;/div&gt;" style="shape=rhombus;html=1;dashed=0;whiteSpace=wrap;perimeter=rhombusPerimeter;fontSize=10;" vertex="1" parent="1">
          <mxGeometry x="-320" y="740" width="60" height="50" as="geometry" />
        </mxCell>
        <mxCell id="IktET_3hy7MtRaVNyWZP-13" style="edgeStyle=orthogonalEdgeStyle;rounded=0;orthogonalLoop=1;jettySize=auto;html=1;exitX=0.5;exitY=0;exitDx=0;exitDy=0;entryX=0.5;entryY=1;entryDx=0;entryDy=0;endArrow=none;endFill=0;" edge="1" parent="1" source="IktET_3hy7MtRaVNyWZP-12" target="IktET_3hy7MtRaVNyWZP-1">
          <mxGeometry relative="1" as="geometry" />
        </mxCell>
        <mxCell id="IktET_3hy7MtRaVNyWZP-14" style="edgeStyle=orthogonalEdgeStyle;rounded=0;orthogonalLoop=1;jettySize=auto;html=1;exitX=0.5;exitY=1;exitDx=0;exitDy=0;entryX=0.5;entryY=0;entryDx=0;entryDy=0;endArrow=none;endFill=0;" edge="1" parent="1" source="IktET_3hy7MtRaVNyWZP-12" target="IktET_3hy7MtRaVNyWZP-4">
          <mxGeometry relative="1" as="geometry" />
        </mxCell>
        <mxCell id="IktET_3hy7MtRaVNyWZP-12" value="operates" style="shape=rhombus;html=1;dashed=0;whiteSpace=wrap;perimeter=rhombusPerimeter;fontSize=10;" vertex="1" parent="1">
          <mxGeometry x="-640" y="740" width="60" height="50" as="geometry" />
        </mxCell>
        <mxCell id="IktET_3hy7MtRaVNyWZP-16" style="rounded=0;orthogonalLoop=1;jettySize=auto;html=1;exitX=1;exitY=0.5;exitDx=0;exitDy=0;entryX=0;entryY=0.5;entryDx=0;entryDy=0;endArrow=none;endFill=0;" edge="1" parent="1" source="IktET_3hy7MtRaVNyWZP-15" target="IktET_3hy7MtRaVNyWZP-5">
          <mxGeometry relative="1" as="geometry" />
        </mxCell>
        <mxCell id="IktET_3hy7MtRaVNyWZP-15" value="travels" style="shape=rhombus;html=1;dashed=0;whiteSpace=wrap;perimeter=rhombusPerimeter;fontSize=10;" vertex="1" parent="1">
          <mxGeometry x="-640" y="550" width="60" height="50" as="geometry" />
        </mxCell>
        <mxCell id="IktET_3hy7MtRaVNyWZP-19" style="edgeStyle=orthogonalEdgeStyle;rounded=0;orthogonalLoop=1;jettySize=auto;html=1;exitX=0.5;exitY=1;exitDx=0;exitDy=0;entryX=0.5;entryY=0;entryDx=0;entryDy=0;endArrow=none;endFill=0;" edge="1" parent="1" source="IktET_3hy7MtRaVNyWZP-18" target="IktET_3hy7MtRaVNyWZP-2">
          <mxGeometry relative="1" as="geometry" />
        </mxCell>
        <mxCell id="IktET_3hy7MtRaVNyWZP-18" value="board/&lt;div&gt;drop&lt;/div&gt;" style="shape=rhombus;html=1;dashed=0;whiteSpace=wrap;perimeter=rhombusPerimeter;fontSize=10;" vertex="1" parent="1">
          <mxGeometry x="-320" y="550" width="60" height="50" as="geometry" />
        </mxCell>
        <mxCell id="IktET_3hy7MtRaVNyWZP-39" style="rounded=0;orthogonalLoop=1;jettySize=auto;html=1;exitX=1;exitY=1;exitDx=0;exitDy=0;entryX=0.25;entryY=0;entryDx=0;entryDy=0;endArrow=none;endFill=0;" edge="1" parent="1" source="IktET_3hy7MtRaVNyWZP-22" target="IktET_3hy7MtRaVNyWZP-1">
          <mxGeometry relative="1" as="geometry" />
        </mxCell>
        <mxCell id="IktET_3hy7MtRaVNyWZP-22" value="id" style="ellipse;whiteSpace=wrap;html=1;fontSize=10;" vertex="1" parent="1">
          <mxGeometry x="-710" y="580" width="60" height="25" as="geometry" />
        </mxCell>
        <mxCell id="IktET_3hy7MtRaVNyWZP-38" style="rounded=0;orthogonalLoop=1;jettySize=auto;html=1;exitX=1;exitY=0.5;exitDx=0;exitDy=0;entryX=0;entryY=0;entryDx=0;entryDy=0;endArrow=none;endFill=0;" edge="1" parent="1" source="IktET_3hy7MtRaVNyWZP-26" target="IktET_3hy7MtRaVNyWZP-1">
          <mxGeometry relative="1" as="geometry" />
        </mxCell>
        <mxCell id="IktET_3hy7MtRaVNyWZP-26" value="start_point" style="ellipse;whiteSpace=wrap;html=1;fontSize=10;" vertex="1" parent="1">
          <mxGeometry x="-750" y="605" width="60" height="25" as="geometry" />
        </mxCell>
        <mxCell id="IktET_3hy7MtRaVNyWZP-37" style="rounded=0;orthogonalLoop=1;jettySize=auto;html=1;exitX=1;exitY=0.5;exitDx=0;exitDy=0;entryX=0;entryY=0.25;entryDx=0;entryDy=0;endArrow=none;endFill=0;" edge="1" parent="1" source="IktET_3hy7MtRaVNyWZP-27" target="IktET_3hy7MtRaVNyWZP-1">
          <mxGeometry relative="1" as="geometry" />
        </mxCell>
        <mxCell id="IktET_3hy7MtRaVNyWZP-27" value="end_point" style="ellipse;whiteSpace=wrap;html=1;fontSize=10;" vertex="1" parent="1">
          <mxGeometry x="-760" y="635" width="60" height="25" as="geometry" />
        </mxCell>
        <mxCell id="IktET_3hy7MtRaVNyWZP-36" style="rounded=0;orthogonalLoop=1;jettySize=auto;html=1;exitX=1;exitY=0.5;exitDx=0;exitDy=0;entryX=0;entryY=0.5;entryDx=0;entryDy=0;endArrow=none;endFill=0;" edge="1" parent="1" source="IktET_3hy7MtRaVNyWZP-28" target="IktET_3hy7MtRaVNyWZP-1">
          <mxGeometry relative="1" as="geometry" />
        </mxCell>
        <mxCell id="IktET_3hy7MtRaVNyWZP-28" value="distance&lt;span style=&quot;color: rgba(0, 0, 0, 0); font-family: monospace; font-size: 0px; text-align: start; text-wrap: nowrap;&quot;&gt;%3CmxGraphModel%3E%3Croot%3E%3CmxCell%20id%3D%220%22%2F%3E%3CmxCell%20id%3D%221%22%20parent%3D%220%22%2F%3E%3CmxCell%20id%3D%222%22%20value%3D%22end_point%22%20style%3D%22ellipse%3BwhiteSpace%3Dwrap%3Bhtml%3D1%3BfontSize%3D10%3B%22%20vertex%3D%221%22%20parent%3D%221%22%3E%3CmxGeometry%20x%3D%22-740%22%20y%3D%22660%22%20width%3D%2260%22%20height%3D%2225%22%20as%3D%22geometry%22%2F%3E%3C%2FmxCell%3E%3C%2Froot%3E%3C%2FmxGraphModel%3E&lt;/span&gt;" style="ellipse;whiteSpace=wrap;html=1;fontSize=10;" vertex="1" parent="1">
          <mxGeometry x="-760" y="665" width="60" height="25" as="geometry" />
        </mxCell>
        <mxCell id="IktET_3hy7MtRaVNyWZP-34" style="rounded=0;orthogonalLoop=1;jettySize=auto;html=1;exitX=1;exitY=0;exitDx=0;exitDy=0;entryX=0;entryY=1;entryDx=0;entryDy=0;endArrow=none;endFill=0;" edge="1" parent="1" source="IktET_3hy7MtRaVNyWZP-29" target="IktET_3hy7MtRaVNyWZP-1">
          <mxGeometry relative="1" as="geometry" />
        </mxCell>
        <mxCell id="IktET_3hy7MtRaVNyWZP-29" value="direction" style="ellipse;whiteSpace=wrap;html=1;fontSize=10;" vertex="1" parent="1">
          <mxGeometry x="-743" y="723" width="60" height="25" as="geometry" />
        </mxCell>
        <mxCell id="IktET_3hy7MtRaVNyWZP-33" style="rounded=0;orthogonalLoop=1;jettySize=auto;html=1;exitX=0.5;exitY=0;exitDx=0;exitDy=0;entryX=0.25;entryY=1;entryDx=0;entryDy=0;endArrow=none;endFill=0;" edge="1" parent="1" source="IktET_3hy7MtRaVNyWZP-30" target="IktET_3hy7MtRaVNyWZP-1">
          <mxGeometry relative="1" as="geometry" />
        </mxCell>
        <mxCell id="IktET_3hy7MtRaVNyWZP-30" value="departure&lt;div&gt;time&lt;/div&gt;" style="ellipse;whiteSpace=wrap;html=1;fontSize=10;" vertex="1" parent="1">
          <mxGeometry x="-680" y="723" width="60" height="25" as="geometry" />
        </mxCell>
        <mxCell id="IktET_3hy7MtRaVNyWZP-35" style="rounded=0;orthogonalLoop=1;jettySize=auto;html=1;exitX=1;exitY=0.5;exitDx=0;exitDy=0;entryX=0;entryY=0.75;entryDx=0;entryDy=0;endArrow=none;endFill=0;" edge="1" parent="1" source="IktET_3hy7MtRaVNyWZP-31" target="IktET_3hy7MtRaVNyWZP-1">
          <mxGeometry relative="1" as="geometry" />
        </mxCell>
        <mxCell id="IktET_3hy7MtRaVNyWZP-31" value="accessibility" style="ellipse;whiteSpace=wrap;html=1;fontSize=10;" vertex="1" parent="1">
          <mxGeometry x="-760" y="695" width="60" height="25" as="geometry" />
        </mxCell>
        <mxCell id="IktET_3hy7MtRaVNyWZP-43" style="rounded=0;orthogonalLoop=1;jettySize=auto;html=1;exitX=0.5;exitY=0;exitDx=0;exitDy=0;entryX=0.25;entryY=1;entryDx=0;entryDy=0;endArrow=none;endFill=0;" edge="1" parent="1" source="IktET_3hy7MtRaVNyWZP-40" target="IktET_3hy7MtRaVNyWZP-4">
          <mxGeometry relative="1" as="geometry" />
        </mxCell>
        <mxCell id="IktET_3hy7MtRaVNyWZP-40" value="id" style="ellipse;whiteSpace=wrap;html=1;fontSize=10;" vertex="1" parent="1">
          <mxGeometry x="-700" y="900" width="60" height="25" as="geometry" />
        </mxCell>
        <mxCell id="IktET_3hy7MtRaVNyWZP-44" style="rounded=0;orthogonalLoop=1;jettySize=auto;html=1;exitX=0.5;exitY=0;exitDx=0;exitDy=0;entryX=0.5;entryY=1;entryDx=0;entryDy=0;endArrow=none;endFill=0;" edge="1" parent="1" source="IktET_3hy7MtRaVNyWZP-41" target="IktET_3hy7MtRaVNyWZP-4">
          <mxGeometry relative="1" as="geometry" />
        </mxCell>
        <mxCell id="IktET_3hy7MtRaVNyWZP-41" value="name" style="ellipse;whiteSpace=wrap;html=1;fontSize=10;" vertex="1" parent="1">
          <mxGeometry x="-640" y="915" width="60" height="25" as="geometry" />
        </mxCell>
        <mxCell id="IktET_3hy7MtRaVNyWZP-45" style="rounded=0;orthogonalLoop=1;jettySize=auto;html=1;exitX=0.5;exitY=0;exitDx=0;exitDy=0;entryX=0.75;entryY=1;entryDx=0;entryDy=0;endArrow=none;endFill=0;" edge="1" parent="1" source="IktET_3hy7MtRaVNyWZP-42" target="IktET_3hy7MtRaVNyWZP-4">
          <mxGeometry relative="1" as="geometry" />
        </mxCell>
        <mxCell id="IktET_3hy7MtRaVNyWZP-42" value="bus_trips" style="ellipse;whiteSpace=wrap;html=1;fontSize=10;" vertex="1" parent="1">
          <mxGeometry x="-580" y="900" width="60" height="25" as="geometry" />
        </mxCell>
        <mxCell id="IktET_3hy7MtRaVNyWZP-49" style="rounded=0;orthogonalLoop=1;jettySize=auto;html=1;exitX=0.5;exitY=0;exitDx=0;exitDy=0;entryX=0.5;entryY=1;entryDx=0;entryDy=0;endArrow=none;endFill=0;" edge="1" parent="1" source="IktET_3hy7MtRaVNyWZP-46" target="IktET_3hy7MtRaVNyWZP-3">
          <mxGeometry relative="1" as="geometry" />
        </mxCell>
        <mxCell id="IktET_3hy7MtRaVNyWZP-46" value="latitude" style="ellipse;whiteSpace=wrap;html=1;fontSize=10;" vertex="1" parent="1">
          <mxGeometry x="-320" y="915" width="60" height="25" as="geometry" />
        </mxCell>
        <mxCell id="IktET_3hy7MtRaVNyWZP-51" style="rounded=0;orthogonalLoop=1;jettySize=auto;html=1;exitX=0.5;exitY=0;exitDx=0;exitDy=0;entryX=0.75;entryY=1;entryDx=0;entryDy=0;endArrow=none;endFill=0;" edge="1" parent="1" source="IktET_3hy7MtRaVNyWZP-47" target="IktET_3hy7MtRaVNyWZP-3">
          <mxGeometry relative="1" as="geometry" />
        </mxCell>
        <mxCell id="IktET_3hy7MtRaVNyWZP-47" value="longitude" style="ellipse;whiteSpace=wrap;html=1;fontSize=10;" vertex="1" parent="1">
          <mxGeometry x="-260" y="900" width="60" height="25" as="geometry" />
        </mxCell>
        <mxCell id="IktET_3hy7MtRaVNyWZP-50" style="rounded=0;orthogonalLoop=1;jettySize=auto;html=1;exitX=0.5;exitY=0;exitDx=0;exitDy=0;entryX=0.25;entryY=1;entryDx=0;entryDy=0;endArrow=none;endFill=0;" edge="1" parent="1" source="IktET_3hy7MtRaVNyWZP-48" target="IktET_3hy7MtRaVNyWZP-3">
          <mxGeometry relative="1" as="geometry" />
        </mxCell>
        <mxCell id="IktET_3hy7MtRaVNyWZP-48" value="id" style="ellipse;whiteSpace=wrap;html=1;fontSize=10;" vertex="1" parent="1">
          <mxGeometry x="-380" y="900" width="60" height="25" as="geometry" />
        </mxCell>
        <mxCell id="IktET_3hy7MtRaVNyWZP-62" style="rounded=0;orthogonalLoop=1;jettySize=auto;html=1;exitX=0;exitY=1;exitDx=0;exitDy=0;entryX=0.75;entryY=0;entryDx=0;entryDy=0;endArrow=none;endFill=0;" edge="1" parent="1" source="IktET_3hy7MtRaVNyWZP-52" target="IktET_3hy7MtRaVNyWZP-2">
          <mxGeometry relative="1" as="geometry" />
        </mxCell>
        <mxCell id="IktET_3hy7MtRaVNyWZP-52" value="id" style="ellipse;whiteSpace=wrap;html=1;fontSize=10;" vertex="1" parent="1">
          <mxGeometry x="-240" y="600" width="60" height="25" as="geometry" />
        </mxCell>
        <mxCell id="IktET_3hy7MtRaVNyWZP-61" style="rounded=0;orthogonalLoop=1;jettySize=auto;html=1;exitX=0;exitY=0.5;exitDx=0;exitDy=0;entryX=1;entryY=0.25;entryDx=0;entryDy=0;endArrow=none;endFill=0;" edge="1" parent="1" source="IktET_3hy7MtRaVNyWZP-53" target="IktET_3hy7MtRaVNyWZP-2">
          <mxGeometry relative="1" as="geometry" />
        </mxCell>
        <mxCell id="IktET_3hy7MtRaVNyWZP-53" value="name" style="ellipse;whiteSpace=wrap;html=1;fontSize=10;" vertex="1" parent="1">
          <mxGeometry x="-210" y="630" width="60" height="25" as="geometry" />
        </mxCell>
        <mxCell id="IktET_3hy7MtRaVNyWZP-59" style="rounded=0;orthogonalLoop=1;jettySize=auto;html=1;exitX=0;exitY=0.5;exitDx=0;exitDy=0;entryX=1;entryY=1;entryDx=0;entryDy=0;endArrow=none;endFill=0;" edge="1" parent="1" source="IktET_3hy7MtRaVNyWZP-54" target="IktET_3hy7MtRaVNyWZP-2">
          <mxGeometry relative="1" as="geometry" />
        </mxCell>
        <mxCell id="IktET_3hy7MtRaVNyWZP-54" value="buildings" style="ellipse;whiteSpace=wrap;html=1;fontSize=10;" vertex="1" parent="1">
          <mxGeometry x="-210" y="690" width="60" height="25" as="geometry" />
        </mxCell>
        <mxCell id="IktET_3hy7MtRaVNyWZP-60" style="rounded=0;orthogonalLoop=1;jettySize=auto;html=1;exitX=0;exitY=0.5;exitDx=0;exitDy=0;entryX=1;entryY=0.75;entryDx=0;entryDy=0;endArrow=none;endFill=0;" edge="1" parent="1" source="IktET_3hy7MtRaVNyWZP-55" target="IktET_3hy7MtRaVNyWZP-2">
          <mxGeometry relative="1" as="geometry" />
        </mxCell>
        <mxCell id="IktET_3hy7MtRaVNyWZP-55" value="address" style="ellipse;whiteSpace=wrap;html=1;fontSize=10;" vertex="1" parent="1">
          <mxGeometry x="-210" y="660" width="60" height="25" as="geometry" />
        </mxCell>
        <mxCell id="IktET_3hy7MtRaVNyWZP-58" style="rounded=0;orthogonalLoop=1;jettySize=auto;html=1;exitX=0;exitY=0;exitDx=0;exitDy=0;entryX=0.75;entryY=1;entryDx=0;entryDy=0;endArrow=none;endFill=0;" edge="1" parent="1" source="IktET_3hy7MtRaVNyWZP-56" target="IktET_3hy7MtRaVNyWZP-2">
          <mxGeometry relative="1" as="geometry" />
        </mxCell>
        <mxCell id="IktET_3hy7MtRaVNyWZP-56" value="routes" style="ellipse;whiteSpace=wrap;html=1;fontSize=10;" vertex="1" parent="1">
          <mxGeometry x="-240" y="720" width="60" height="25" as="geometry" />
        </mxCell>
        <mxCell id="IktET_3hy7MtRaVNyWZP-71" style="rounded=0;orthogonalLoop=1;jettySize=auto;html=1;exitX=1;exitY=1;exitDx=0;exitDy=0;entryX=0.25;entryY=0;entryDx=0;entryDy=0;endArrow=none;endFill=0;" edge="1" parent="1" source="IktET_3hy7MtRaVNyWZP-63" target="IktET_3hy7MtRaVNyWZP-5">
          <mxGeometry relative="1" as="geometry" />
        </mxCell>
        <mxCell id="IktET_3hy7MtRaVNyWZP-63" value="name" style="ellipse;whiteSpace=wrap;html=1;fontSize=10;" vertex="1" parent="1">
          <mxGeometry x="-549" y="500" width="60" height="25" as="geometry" />
        </mxCell>
        <mxCell id="IktET_3hy7MtRaVNyWZP-70" style="rounded=0;orthogonalLoop=1;jettySize=auto;html=1;exitX=0.5;exitY=1;exitDx=0;exitDy=0;entryX=0;entryY=0.25;entryDx=0;entryDy=0;endArrow=none;endFill=0;" edge="1" parent="1" source="IktET_3hy7MtRaVNyWZP-64" target="IktET_3hy7MtRaVNyWZP-5">
          <mxGeometry relative="1" as="geometry" />
        </mxCell>
        <mxCell id="IktET_3hy7MtRaVNyWZP-64" value="id" style="ellipse;whiteSpace=wrap;html=1;fontSize=10;" vertex="1" parent="1">
          <mxGeometry x="-560" y="530" width="60" height="25" as="geometry" />
        </mxCell>
        <mxCell id="IktET_3hy7MtRaVNyWZP-72" style="rounded=0;orthogonalLoop=1;jettySize=auto;html=1;exitX=0.5;exitY=1;exitDx=0;exitDy=0;entryX=0.5;entryY=0;entryDx=0;entryDy=0;endArrow=none;endFill=0;" edge="1" parent="1" source="IktET_3hy7MtRaVNyWZP-65" target="IktET_3hy7MtRaVNyWZP-5">
          <mxGeometry relative="1" as="geometry" />
        </mxCell>
        <mxCell id="IktET_3hy7MtRaVNyWZP-65" value="age" style="ellipse;whiteSpace=wrap;html=1;fontSize=10;" vertex="1" parent="1">
          <mxGeometry x="-480" y="490" width="60" height="25" as="geometry" />
        </mxCell>
        <mxCell id="IktET_3hy7MtRaVNyWZP-74" style="rounded=0;orthogonalLoop=1;jettySize=auto;html=1;exitX=0;exitY=1;exitDx=0;exitDy=0;entryX=0.75;entryY=0;entryDx=0;entryDy=0;endArrow=none;endFill=0;" edge="1" parent="1" source="IktET_3hy7MtRaVNyWZP-66" target="IktET_3hy7MtRaVNyWZP-5">
          <mxGeometry relative="1" as="geometry" />
        </mxCell>
        <mxCell id="IktET_3hy7MtRaVNyWZP-66" value="gender" style="ellipse;whiteSpace=wrap;html=1;fontSize=10;" vertex="1" parent="1">
          <mxGeometry x="-410" y="500" width="60" height="25" as="geometry" />
        </mxCell>
        <mxCell id="IktET_3hy7MtRaVNyWZP-75" style="rounded=0;orthogonalLoop=1;jettySize=auto;html=1;exitX=0;exitY=0.5;exitDx=0;exitDy=0;entryX=1;entryY=0;entryDx=0;entryDy=0;endArrow=none;endFill=0;" edge="1" parent="1" source="IktET_3hy7MtRaVNyWZP-67" target="IktET_3hy7MtRaVNyWZP-5">
          <mxGeometry relative="1" as="geometry" />
        </mxCell>
        <mxCell id="IktET_3hy7MtRaVNyWZP-67" value="contact" style="ellipse;whiteSpace=wrap;html=1;fontSize=10;" vertex="1" parent="1">
          <mxGeometry x="-390" y="530" width="60" height="25" as="geometry" />
        </mxCell>
      </root>
    </mxGraphModel>
  </diagram>
</mxfile>
